<svg xmlns="http://www.w3.org/2000/svg" xmlns:xlink="http://www.w3.org/1999/xlink" id="layer" x="0" y="0" version="1.1" viewBox="-153 -46 652 652" xml:space="preserve" style="enable-background:new -153 -46 652 652"><path d="M-4.6,248c0,34-28.5,63.6-63,63.6c-18.5,0-34.8-8.8-45.9-22.4v74.6H-132V186.9h18.5v19.9c11.1-13.3,27.4-21.8,45.9-21.8	C-33,184.9-4.6,213.4-4.6,248z M-23.9,248c0-24.6-18.5-44.8-43.1-44.8c-24,0-45.3,20.2-45.3,44.8c0,24.1,21.3,45.3,45.3,45.3	C-42.4,293.3-23.9,272-23.9,248L-23.9,248z M34.1,203.5c10.4-11.9,25.4-18.6,41.2-18.5v18.2c-21.6,0-41.2,13.3-41.2,38.1v67.2H15.6	V186.9h18.5V203.5z M83.1,248c0-34.5,28.5-63,63-63s63,28.5,63,63c0,34-28.5,63.6-63,63.6S83.1,282,83.1,248z M102.4,248	c0,24.1,19.1,45.3,43.7,45.3c24.6,0,43.7-21.3,43.7-45.3c0-24.6-19.1-44.8-43.7-44.8S102.4,223.4,102.4,248z M256.4,245.8	l-44.2-58.9h22.7l32.9,43.7l32.9-43.7h22.7L279,245.8l47.2,62.7h-22.6l-35.9-47.5L232,308.5h-22.7L256.4,245.8z M468,186.9h-21.8	l-43.1,86l-42.8-86h-21.8l53.9,107.8l-15.6,30.7c0,0-5.6,11.2-8.8,15c-3.2,3.7-8.2,5.9-15,5.9c-3,0-11.1-0.9-14.7-2.5l-2.7,18.1	c4.9,2.4,15.6,3.2,18.7,3.2c15.3,0,23.6-7,26.7-10.1c3.3-3.3,6.1-7,8.3-11.1c2.2-4.4,7.2-14.2,7.2-14.2l17.7-34.7l0,0L468,186.9z"/></svg>